<svg data-v-0dd9719b="" version="1.0" xmlns="http://www.w3.org/2000/svg" xmlns:xlink="http://www.w3.org/1999/xlink" width="100%" height="100%" viewBox="0 0 340.000000 250.000000" preserveAspectRatio="xMidYMid meet" color-interpolation-filters="sRGB" style="margin: auto;"> <rect data-v-0dd9719b="" x="0" y="0" width="100%" height="100%" fill="#ffffff" fill-opacity="1" class="background"></rect> <rect data-v-0dd9719b="" x="0" y="0" width="100%" height="100%" fill="url(#watermark)" fill-opacity="1" class="watermarklayer"></rect> <g data-v-0dd9719b="" fill="#343c3e" class="icon-text-wrapper icon-svg-group iconsvg" transform="translate(73.1448974609375,94.38086700439453)"><g class="iconsvg-imagesvg" transform="translate(0,0.6188297271728516)"><g><rect fill="#343c3e" fill-opacity="0" stroke-width="2" x="0" y="0" width="60" height="60.000600006000056" class="image-rect"></rect> <svg filter="url(#colors8756563342)" x="0" y="0" width="60" height="60.000600006000056" filtersec="colorsf4035721064" class="image-svg-svg primary" style="overflow: visible;"><svg version="1.1" id="Capa_1" xmlns="http://www.w3.org/2000/svg" xmlns:xlink="http://www.w3.org/1999/xlink" x="0px" y="0px" viewBox="0 0 101.6030044555664 101.60399627685547" style="enable-background:new 0 0 101.604 101.604;" xml:space="preserve"><g> <path d="M52.813,40.641c6.899,4.145,11.535,11.686,11.535,20.32c0,13.093-10.613,23.707-23.707,23.707 c-13.093,0-23.708-10.614-23.708-23.707c0-13.094,10.614-23.707,23.708-23.707h33.012c0-0.001-0.002-0.002-0.002-0.002h2.553 l25.399-16.933H40.641c-4.767,0-9.299,0.819-13.549,2.327V6.771c0-3.74-2.031-6.771-5.771-6.771c-1.706,0-3.566,0.521-5.445,1.691 L3.389,10.16h8.463c0,0-11.061,33.494-11.852,50.802c0,22.444,18.195,40.642,40.641,40.642c22.445,0,40.641-18.195,40.641-40.642 c0-7.403-1.981-14.343-5.44-20.32L52.813,40.641L52.813,40.641z"></path></g></svg></svg> <defs><filter id="colors8756563342"><feColorMatrix type="matrix" values="0 0 0 0 0.203125  0 0 0 0 0.234375  0 0 0 0 0.2421875  0 0 0 1 0" class="icon-fecolormatrix"></feColorMatrix></filter> <filter id="colorsf4035721064"><feColorMatrix type="matrix" values="0 0 0 0 0.99609375  0 0 0 0 0.99609375  0 0 0 0 0.99609375  0 0 0 1 0" class="icon-fecolormatrix"></feColorMatrix></filter> <filter id="colorsb7958540081"><feColorMatrix type="matrix" values="0 0 0 0 0  0 0 0 0 0  0 0 0 0 0  0 0 0 1 0" class="icon-fecolormatrix"></feColorMatrix></filter></defs></g></g> <g transform="translate(67,0)"><g data-gra="path-name" fill-rule="" class="tp-name iconsvg-namesvg"><g transform="scale(1)"><g><path d="M1.67-33.74L1.67-34.72Q2.89-34.67 4.98-34.62 7.06-34.57 9.12-34.57L9.12-34.57Q11.47-34.57 13.68-34.62 15.89-34.67 16.82-34.67L16.82-34.67Q23.64-34.67 27.02-31.97 30.4-29.28 30.4-25.01L30.4-25.01Q30.4-23.24 29.72-21.31 29.03-19.37 27.39-17.73 25.75-16.08 22.9-15.05 20.06-14.02 15.74-14.02L15.74-14.02 10.74-14.02 10.74-15.01 15.25-15.01Q18.14-15.01 19.64-16.33 21.14-17.65 21.7-19.81 22.26-21.97 22.26-24.47L22.26-24.47Q22.26-29.13 20.89-31.43 19.52-33.74 16.18-33.74L16.18-33.74Q14.27-33.74 13.71-32.9 13.14-32.07 13.14-29.52L13.14-29.52 13.14-5.49Q13.14-3.58 13.53-2.65 13.93-1.72 15.05-1.42 16.18-1.13 18.39-1.08L18.39-1.08 18.39 0Q16.87-0.05 14.47-0.1 12.06-0.15 9.42-0.15L9.42-0.15Q7.31-0.15 5.3-0.1 3.29-0.05 1.67 0L1.67 0 1.67-0.98Q3.24-1.08 4.02-1.37 4.81-1.67 5.08-2.55 5.35-3.43 5.35-5.2L5.35-5.2 5.35-29.52Q5.35-31.34 5.08-32.19 4.81-33.05 4-33.37 3.19-33.69 1.67-33.74L1.67-33.74ZM46.68-34.82L46.68-34.82 58.6-4.12Q59.29-2.35 60.15-1.69 61-1.03 61.69-0.98L61.69-0.98 61.69 0Q60.22-0.1 58.23-0.12 56.25-0.15 54.24-0.15L54.24-0.15Q51.98-0.15 49.97-0.12 47.96-0.1 46.78 0L46.78 0 46.78-0.98Q49.28-1.08 49.95-1.84 50.61-2.6 49.63-5.1L49.63-5.1 41.29-27.9 42.17-29.18 34.72-9.76Q33.35-6.13 33.37-4.27 33.39-2.4 34.57-1.74 35.75-1.08 37.71-0.98L37.71-0.98 37.71 0Q36.09-0.1 34.62-0.12 33.15-0.15 31.63-0.15L31.63-0.15Q30.55-0.15 29.59-0.12 28.64-0.1 27.9 0L27.9 0 27.9-0.98Q28.93-1.18 30.01-2.3 31.09-3.43 32.12-6.13L32.12-6.13 43.3-34.82Q44.09-34.77 44.99-34.77 45.9-34.77 46.68-34.82ZM35.99-14.12L50.12-14.12 50.12-13.14 35.5-13.14 35.99-14.12ZM89.49-34.72L89.49-34.72Q89.3-32.22 89.22-29.91 89.15-27.61 89.15-26.38L89.15-26.38Q89.15-25.3 89.2-24.32 89.25-23.34 89.3-22.66L89.3-22.66 88.17-22.66Q87.39-26.77 86.18-29.18 84.98-31.58 83.32-32.59 81.65-33.59 79.39-33.59L79.39-33.59 78.26-33.59 78.26-5.59Q78.26-3.63 78.68-2.65 79.1-1.67 80.23-1.35 81.35-1.03 83.51-0.98L83.51-0.98 83.51 0Q81.99-0.05 79.47-0.1 76.94-0.15 74.19-0.15L74.19-0.15Q71.5-0.15 69.09-0.1 66.69-0.05 65.22 0L65.22 0 65.22-0.98Q67.43-1.03 68.56-1.35 69.68-1.67 70.08-2.65 70.47-3.63 70.47-5.59L70.47-5.59 70.47-33.59 69.39-33.59Q67.13-33.59 65.47-32.59 63.8-31.58 62.62-29.2 61.44-26.82 60.56-22.66L60.56-22.66 59.43-22.66Q59.53-23.34 59.56-24.32 59.58-25.3 59.58-26.38L59.58-26.38Q59.58-27.61 59.51-29.91 59.43-32.22 59.24-34.72L59.24-34.72Q61.49-34.67 64.17-34.62 66.84-34.57 69.54-34.57 72.23-34.57 74.39-34.57L74.39-34.57Q76.6-34.57 79.27-34.57 81.94-34.57 84.64-34.62 87.34-34.67 89.49-34.72ZM113.23 0L113.23 0 113.23-0.98Q114.8-1.08 115.58-1.37 116.37-1.67 116.64-2.55 116.91-3.43 116.91-5.2L116.91-5.2 116.91-29.52Q116.91-31.34 116.64-32.19 116.37-33.05 115.56-33.37 114.75-33.69 113.23-33.74L113.23-33.74 113.23-34.72Q114.55-34.67 116.69-34.62 118.82-34.57 120.93-34.57L120.93-34.57Q123.18-34.57 125.17-34.62 127.16-34.67 128.38-34.72L128.38-34.72 128.38-33.74Q126.81-33.69 126-33.37 125.19-33.05 124.95-32.19 124.7-31.34 124.7-29.52L124.7-29.52 124.7-5.2Q124.7-3.43 124.97-2.55 125.24-1.67 126.03-1.37 126.81-1.08 128.38-0.98L128.38-0.98 128.38 0Q127.16-0.1 125.17-0.12 123.18-0.15 120.93-0.15L120.93-0.15Q118.82-0.15 116.69-0.12 114.55-0.1 113.23 0ZM92.44 0L92.44 0 92.44-0.98Q94.01-1.08 94.79-1.37 95.58-1.67 95.84-2.55 96.11-3.43 96.11-5.2L96.11-5.2 96.11-29.52Q96.11-31.34 95.84-32.19 95.58-33.05 94.77-33.37 93.96-33.69 92.44-33.74L92.44-33.74 92.44-34.72Q93.71-34.67 95.75-34.62 97.78-34.57 100.18-34.57L100.18-34.57Q102.24-34.57 104.25-34.62 106.27-34.67 107.59-34.72L107.59-34.72 107.59-33.74Q106.02-33.69 105.21-33.37 104.4-33.05 104.16-32.19 103.91-31.34 103.91-29.52L103.91-29.52 103.91-5.2Q103.91-3.43 104.18-2.55 104.45-1.67 105.24-1.37 106.02-1.08 107.59-0.98L107.59-0.98 107.59 0Q106.27-0.1 104.25-0.12 102.24-0.15 100.18-0.15L100.18-0.15Q97.78-0.15 95.75-0.12 93.71-0.1 92.44 0ZM120.09-16.97L100.72-16.97 100.72-17.95 120.09-17.95 120.09-16.97Z" transform="translate(-1.6700000762939453, 34.81999969482422)"></path></g> <!----> <!----> <!----> <!----> <!----> <!----> <g data-gra="path-name-1" fill="#343c3e" transform="translate(0,37.81999969482422)"><g transform="scale(0.99062)"><path d="M13.01-23.19L13.01-23.19Q15.19-23.19 16.58-22.58 17.96-21.97 19.05-21.1L19.05-21.1Q19.43-20.82 19.69-20.82L19.69-20.82Q20.3-20.82 20.49-22.74L20.49-22.74 21.23-22.74Q21.17-21.49 21.14-19.71 21.1-17.92 21.1-14.97L21.1-14.97 20.37-14.97Q20.14-16.9 19.68-18.33 19.21-19.76 17.96-20.78L17.96-20.78Q17.19-21.52 16.05-21.94 14.9-22.36 13.75-22.36L13.75-22.36Q11.98-22.36 10.73-21.44 9.48-20.53 8.67-18.95 7.87-17.38 7.48-15.4 7.1-13.43 7.1-11.31L7.1-11.31Q7.1-5.53 8.69-2.86 10.28-0.19 13.27-0.19L13.27-0.19Q14.04-0.19 14.62-0.39 15.19-0.58 15.55-0.84L15.55-0.84Q16-1.16 16.16-1.53 16.32-1.9 16.32-2.51L16.32-2.51 16.32-5.65Q16.32-7.13 16.08-7.85 15.84-8.58 15.13-8.83 14.42-9.09 13.07-9.12L13.07-9.12 13.07-9.77Q13.75-9.73 14.7-9.72 15.64-9.7 16.67-9.68 17.7-9.67 18.57-9.67L18.57-9.67Q19.92-9.67 21.04-9.7 22.16-9.73 22.87-9.77L22.87-9.77 22.87-9.12Q21.97-9.06 21.7-8.61 21.43-8.16 21.43-6.36L21.43-6.36 21.43 0 20.78 0Q20.75-0.55 20.54-1.19 20.33-1.83 19.85-1.83L19.85-1.83Q19.63-1.83 19.26-1.72 18.89-1.61 18.12-1.16L18.12-1.16Q16.93-0.48 15.61-0.02 14.29 0.45 12.85 0.45L12.85 0.45Q7.23 0.45 4.3-2.6 1.38-5.65 1.38-11.11L1.38-11.11Q1.38-14.78 2.87-17.47 4.37-20.17 6.99-21.68 9.6-23.19 13.01-23.19ZM34.82-22.74L34.82-22.74 34.82-22.1Q33.73-22.07 33.17-21.86 32.6-21.65 32.41-21.09 32.22-20.53 32.22-19.34L32.22-19.34 32.22-3.02Q32.22-2.02 32.36-1.54 32.51-1.06 32.94-0.9 33.38-0.74 34.24-0.74L34.24-0.74 35.82-0.74Q37.29-0.74 38.5-1.64 39.7-2.54 40.52-4.16 41.34-5.78 41.66-7.9L41.66-7.9 42.4-7.9Q42.31-6.81 42.31-5.08L42.31-5.08Q42.31-4.34 42.34-2.92 42.37-1.51 42.53 0L42.53 0Q40.89-0.06 38.84-0.08 36.78-0.1 35.17-0.1L35.17-0.1Q34.08-0.1 32.28-0.1 30.48-0.1 28.46-0.08 26.44-0.06 24.7 0L24.7 0 24.7-0.64Q25.73-0.71 26.24-0.9 26.76-1.09 26.93-1.67 27.11-2.25 27.11-3.4L27.11-3.4 27.11-19.34Q27.11-20.53 26.93-21.09 26.76-21.65 26.23-21.86 25.7-22.07 24.7-22.1L24.7-22.1 24.7-22.74Q25.51-22.71 26.87-22.68 28.24-22.65 29.78-22.65L29.78-22.65Q31.19-22.65 32.56-22.68 33.92-22.71 34.82-22.74ZM55.99-23.19L55.99-23.19Q59.39-23.19 61.95-21.81 64.5-20.43 65.92-17.84 67.33-15.26 67.33-11.56L67.33-11.56Q67.33-7.97 65.88-5.27 64.44-2.57 61.85-1.06 59.27 0.45 55.96 0.45L55.96 0.45Q52.55 0.45 50-0.93 47.45-2.31 46.03-4.91 44.62-7.52 44.62-11.18L44.62-11.18Q44.62-14.78 46.08-17.47 47.54-20.17 50.1-21.68 52.65-23.19 55.99-23.19ZM55.86-22.61L55.86-22.61Q54.06-22.61 52.73-21.17 51.4-19.72 50.67-17.19 49.95-14.65 49.95-11.31L49.95-11.31Q49.95-7.9 50.77-5.38 51.59-2.86 52.99-1.49 54.38-0.13 56.09-0.13L56.09-0.13Q57.88-0.13 59.22-1.57 60.55-3.02 61.27-5.57 62-8.13 62-11.44L62-11.44Q62-14.87 61.18-17.38 60.36-19.88 58.96-21.25 57.56-22.61 55.86-22.61ZM69.55-22.1L69.55-22.74Q70.35-22.71 71.71-22.68 73.08-22.65 74.43-22.65L74.43-22.65Q75.97-22.65 77.42-22.68 78.86-22.71 79.47-22.71L79.47-22.71Q83.45-22.71 85.43-21.3 87.41-19.88 87.41-17.67L87.41-17.67Q87.41-16.54 86.73-15.39 86.06-14.23 84.64-13.33 83.23-12.43 80.98-12.01L80.98-12.01 80.98-11.95Q84-11.72 85.77-10.86 87.53-9.99 88.3-8.77 89.08-7.55 89.08-6.23L89.08-6.23Q89.08-3.21 86.71-1.61 84.35 0 80.21 0L80.21 0Q79.44 0 77.98-0.05 76.52-0.1 74.49-0.1L74.49-0.1Q73.08-0.1 71.71-0.08 70.35-0.06 69.55 0L69.55 0 69.55-0.64Q70.57-0.71 71.09-0.9 71.6-1.09 71.78-1.67 71.95-2.25 71.95-3.4L71.95-3.4 71.95-19.34Q71.95-20.53 71.78-21.09 71.6-21.65 71.07-21.86 70.54-22.07 69.55-22.1L69.55-22.1ZM79.05-22.1L79.05-22.1Q77.8-22.1 77.43-21.55 77.06-21.01 77.06-19.34L77.06-19.34 77.06-3.4Q77.06-1.73 77.48-1.24 77.9-0.74 79.28-0.74L79.28-0.74Q81.59-0.74 82.67-2.2 83.74-3.66 83.74-6.36L83.74-6.36Q83.74-8.83 82.51-10.18 81.27-11.53 78.41-11.53L78.41-11.53 75.68-11.53Q75.68-11.53 75.68-11.81 75.68-12.08 75.68-12.08L75.68-12.08 78.44-12.08Q79.95-12.08 80.76-12.8 81.56-13.52 81.88-14.73 82.2-15.93 82.2-17.31L82.2-17.31Q82.2-19.69 81.46-20.9 80.72-22.1 79.05-22.1ZM101.41-22.81L101.41-22.81 109.22-2.7Q109.67-1.54 110.23-1.11 110.79-0.67 111.24-0.64L111.24-0.64 111.24 0Q110.28-0.06 108.98-0.08 107.67-0.1 106.36-0.1L106.36-0.1Q104.88-0.1 103.56-0.08 102.25-0.06 101.48 0L101.48 0 101.48-0.64Q103.11-0.71 103.55-1.2 103.98-1.7 103.34-3.34L103.34-3.34 97.88-18.28 98.46-19.11 93.57-6.39Q92.67-4.02 92.69-2.79 92.71-1.57 93.48-1.14 94.25-0.71 95.53-0.64L95.53-0.64 95.53 0Q94.47-0.06 93.51-0.08 92.55-0.1 91.55-0.1L91.55-0.1Q90.84-0.1 90.22-0.08 89.59-0.06 89.11 0L89.11 0 89.11-0.64Q89.78-0.77 90.49-1.51 91.2-2.25 91.87-4.02L91.87-4.02 99.19-22.81Q99.71-22.77 100.3-22.77 100.9-22.77 101.41-22.81ZM94.41-9.25L103.66-9.25 103.66-8.61 94.09-8.61 94.41-9.25ZM121.58-22.74L121.58-22.74 121.58-22.1Q120.49-22.07 119.93-21.86 119.37-21.65 119.17-21.09 118.98-20.53 118.98-19.34L118.98-19.34 118.98-3.02Q118.98-2.02 119.13-1.54 119.27-1.06 119.7-0.9 120.14-0.74 121.01-0.74L121.01-0.74 122.58-0.74Q124.06-0.74 125.26-1.64 126.47-2.54 127.29-4.16 128.1-5.78 128.43-7.9L128.43-7.9 129.16-7.9Q129.07-6.81 129.07-5.08L129.07-5.08Q129.07-4.34 129.1-2.92 129.13-1.51 129.29 0L129.29 0Q127.66-0.06 125.6-0.08 123.54-0.1 121.94-0.1L121.94-0.1Q120.85-0.1 119.05-0.1 117.25-0.1 115.22-0.08 113.2-0.06 111.47 0L111.47 0 111.47-0.64Q112.49-0.71 113.01-0.9 113.52-1.09 113.7-1.67 113.87-2.25 113.87-3.4L113.87-3.4 113.87-19.34Q113.87-20.53 113.7-21.09 113.52-21.65 112.99-21.86 112.46-22.07 111.47-22.1L111.47-22.1 111.47-22.74Q112.27-22.71 113.63-22.68 115-22.65 116.54-22.65L116.54-22.65Q117.95-22.65 119.32-22.68 120.68-22.71 121.58-22.74Z" transform="translate(-1.3799999952316284, 23.190000534057617)"></path></g></g></g></g> <!----></g></g><defs v-gra="od"></defs></svg>